<svg width="18" height="18" viewBox="0 0 18 18" fill="none" xmlns="http://www.w3.org/2000/svg">
<g clip-path="url(#clip0_1001_4)">
<path d="M17.64 9.20455C17.64 8.56636 17.5827 7.95273 17.4764 7.36364H9V10.845H13.8436C13.635 11.97 13.0009 12.9232 12.0477 13.5614V15.8195H14.9564C16.6582 14.2527 17.64 11.9455 17.64 9.20455Z" fill="#4285F4"/>
<path d="M9 18C11.43 18 13.4673 17.1941 14.9564 15.8195L12.0477 13.5614C11.2418 14.1014 10.2109 14.4205 9 14.4205C6.96273 14.4205 5.23773 13.0182 4.62955 11.1818H1.59727V13.5182C3.06545 16.2273 5.85727 18 9 18Z" fill="#34A853"/>
<path d="M4.62955 11.1818C4.42182 10.5682 4.31227 9.92182 4.31227 9.27273C4.31227 8.62364 4.42182 7.97727 4.62955 7.36364V5.02727H1.59727C0.947727 6.34545 0.523636 7.76591 0.523636 9.27273C0.523636 10.78 0.947727 12.1991 1.59727 13.5182L4.62955 11.1818Z" fill="#FBBC05"/>
<path d="M9 4.125C10.0214 4.125 10.9255 4.5 11.6318 5.17773L15.0218 1.94318C13.4618 0.490909 11.4255 0 9 0C5.85727 0 3.06545 1.77273 1.59727 4.48182L4.62955 6.81818C5.23773 4.98182 6.96273 4.125 9 4.125Z" fill="#EA4335"/>
</g>
<defs>
<clipPath id="clip0_1001_4">
<rect width="18" height="18" fill="white"/>
</clipPath>
</defs>
</svg>
